<mxfile host="app.diagrams.net" modified="2022-05-19T02:29:36.254Z" agent="5.0 (Windows NT 10.0; Win64; x64) AppleWebKit/537.36 (KHTML, like Gecko) Chrome/101.0.4951.67 Safari/537.36" etag="lm5VEUlRtCSBhSdvVTct" version="17.4.6" type="github">
  <diagram id="Ov7BebS-yDcDIdqpCCyI" name="Page-1">
    <mxGraphModel dx="1053" dy="564" grid="1" gridSize="10" guides="1" tooltips="1" connect="1" arrows="1" fold="1" page="1" pageScale="1" pageWidth="827" pageHeight="1169" math="0" shadow="0">
      <root>
        <mxCell id="0" />
        <mxCell id="1" parent="0" />
        <mxCell id="0A3wFjgfzVgMQwuRrIeh-5" value="情况1、删除的’" style="ellipse;whiteSpace=wrap;html=1;" vertex="1" parent="1">
          <mxGeometry x="330" y="110" width="120" height="80" as="geometry" />
        </mxCell>
        <mxCell id="0A3wFjgfzVgMQwuRrIeh-6" value="" style="endArrow=none;html=1;rounded=0;" edge="1" parent="1">
          <mxGeometry width="50" height="50" relative="1" as="geometry">
            <mxPoint x="385" y="260" as="sourcePoint" />
            <mxPoint x="395" y="190" as="targetPoint" />
          </mxGeometry>
        </mxCell>
        <mxCell id="0A3wFjgfzVgMQwuRrIeh-8" style="edgeStyle=orthogonalEdgeStyle;rounded=0;orthogonalLoop=1;jettySize=auto;html=1;exitX=0.25;exitY=0.1;exitDx=0;exitDy=0;exitPerimeter=0;" edge="1" parent="1" source="0A3wFjgfzVgMQwuRrIeh-7">
          <mxGeometry relative="1" as="geometry">
            <mxPoint x="290" y="216" as="targetPoint" />
          </mxGeometry>
        </mxCell>
        <mxCell id="0A3wFjgfzVgMQwuRrIeh-7" value="Actor" style="shape=umlActor;verticalLabelPosition=bottom;verticalAlign=top;html=1;" vertex="1" parent="1">
          <mxGeometry x="200" y="290" width="30" height="60" as="geometry" />
        </mxCell>
      </root>
    </mxGraphModel>
  </diagram>
</mxfile>
